<?xml version="1.0" standalone="no"?>
<!DOCTYPE svg PUBLIC "-//W3C//DTD SVG 20010904//EN"
 "http://www.w3.org/TR/2001/REC-SVG-20010904/DTD/svg10.dtd">
<svg version="1.0" xmlns="http://www.w3.org/2000/svg"
 width="200.000000pt" height="200.000000pt" viewBox="0 0 200.000000 200.000000"
 preserveAspectRatio="xMidYMid meet">
<metadata>
Created by potrace 1.11, written by Peter Selinger 2001-2013
</metadata>
<g transform="translate(0.000000,200.000000) scale(0.100000,-0.100000)"
fill="#000000" stroke="none">
<path d="M990 1203 c0 -176 -4 -313 -11 -336 -23 -83 -126 -95 -187 -22 l-27
34 -60 -45 c-33 -25 -62 -50 -64 -55 -2 -6 22 -35 52 -64 63 -61 125 -85 216
-85 93 1 171 38 218 105 47 68 53 117 53 452 l0 313 -95 0 -95 0 0 -297z"/>
</g>
</svg>
