<?xml version="1.0" standalone="no"?>
<!DOCTYPE svg PUBLIC "-//W3C//DTD SVG 20010904//EN"
 "http://www.w3.org/TR/2001/REC-SVG-20010904/DTD/svg10.dtd">
<svg version="1.0" xmlns="http://www.w3.org/2000/svg"
 width="200.000000pt" height="200.000000pt" viewBox="0 0 200.000000 200.000000"
 preserveAspectRatio="xMidYMid meet">
<metadata>
Created by potrace 1.11, written by Peter Selinger 2001-2013
</metadata>
<g transform="translate(0.000000,200.000000) scale(0.100000,-0.100000)"
fill="#000000" stroke="none">
<path d="M1153 1357 c0 -731 3 -702 -88 -793 -62 -62 -119 -84 -212 -79 -134
6 -246 110 -261 242 l-5 43 -66 1 c-36 0 -135 2 -218 3 l-153 3 0 -44 c0 -79
30 -196 75 -288 94 -195 286 -345 500 -391 68 -14 231 -13 300 2 79 18 235 90
280 129 17 15 42 37 57 50 47 39 130 157 164 230 64 139 64 144 64 869 l0 656
-218 0 -218 0 -1 -633z"/>
</g>
</svg>
